<svg xmlns="http://www.w3.org/2000/svg" xmlns:xlink="http://www.w3.org/1999/xlink" width="300" zoomAndPan="magnify" viewBox="0 0 224.87999 112.499997" height="150" preserveAspectRatio="xMidYMid meet" version="1.0"><defs><clipPath id="ab7e1bec80"><path d="M 0.4375 36 L 18 36 L 18 73 L 0.4375 73 Z M 0.4375 36 " clip-rule="nonzero"/></clipPath><clipPath id="656e90792c"><path d="M 100 4.480469 L 118 4.480469 L 118 56 L 100 56 Z M 100 4.480469 " clip-rule="nonzero"/></clipPath></defs><path fill="#ff0336" d="M 180.378906 87.3125 L 173.0625 85.226562 C 170.554688 84.511719 169.101562 81.898438 169.820312 79.394531 L 189.945312 8.859375 C 190.660156 6.351562 193.273438 4.898438 195.777344 5.617188 L 203.09375 7.703125 C 205.601562 8.417969 207.054688 11.03125 206.335938 13.539062 L 186.207031 84.070312 C 185.492188 86.578125 182.882812 88.03125 180.378906 87.3125 Z M 180.378906 87.3125 " fill-opacity="1" fill-rule="nonzero"/><path fill="#ff0336" d="M 197.582031 81.574219 L 193.582031 80.433594 C 191.277344 79.777344 189.945312 77.375 190.601562 75.070312 L 205.320312 23.5 C 205.976562 21.195312 208.375 19.863281 210.683594 20.519531 L 214.683594 21.660156 C 216.984375 22.316406 218.316406 24.714844 217.664062 27.023438 L 202.941406 78.59375 C 202.28125 80.898438 199.886719 82.234375 197.582031 81.574219 Z M 197.582031 81.574219 " fill-opacity="1" fill-rule="nonzero"/><path fill="#ff0336" d="M 210.667969 72.117188 C 208.367188 71.460938 207.03125 69.0625 207.6875 66.757812 L 215.445312 39.578125 C 216.101562 37.277344 218.5 35.941406 220.808594 36.597656 C 223.109375 37.253906 224.441406 39.65625 223.785156 41.960938 L 216.03125 69.136719 C 215.371094 71.445312 212.96875 72.777344 210.667969 72.117188 Z M 210.667969 72.117188 " fill-opacity="1" fill-rule="nonzero"/><path fill="#ff0336" d="M 44.503906 87.3125 L 51.816406 85.226562 C 54.324219 84.511719 55.777344 81.898438 55.0625 79.394531 L 34.933594 8.859375 C 34.222656 6.351562 31.609375 4.898438 29.101562 5.617188 L 21.78125 7.703125 C 19.273438 8.417969 17.820312 11.03125 18.539062 13.539062 L 38.667969 84.070312 C 39.386719 86.578125 41.996094 88.03125 44.503906 87.3125 Z M 44.503906 87.3125 " fill-opacity="1" fill-rule="nonzero"/><path fill="#ff0336" d="M 27.296875 81.574219 L 31.300781 80.433594 C 33.601562 79.777344 34.933594 77.375 34.28125 75.070312 L 19.558594 23.5 C 18.902344 21.195312 16.503906 19.863281 14.199219 20.519531 L 10.199219 21.660156 C 7.894531 22.316406 6.5625 24.714844 7.21875 27.023438 L 21.9375 78.59375 C 22.597656 80.898438 24.992188 82.234375 27.296875 81.574219 Z M 27.296875 81.574219 " fill-opacity="1" fill-rule="nonzero"/><g clip-path="url(#ab7e1bec80)"><path fill="#ff0336" d="M 14.210938 72.117188 C 16.511719 71.460938 17.847656 69.0625 17.191406 66.757812 L 9.433594 39.582031 C 8.777344 37.28125 6.378906 35.949219 4.074219 36.601562 C 1.769531 37.257812 0.4375 39.660156 1.097656 41.960938 L 8.855469 69.136719 C 9.511719 71.445312 11.910156 72.777344 14.210938 72.117188 Z M 14.210938 72.117188 " fill-opacity="1" fill-rule="nonzero"/></g><path fill="#ff0336" d="M 40.121094 38.5 C 51.855469 35.6875 63.519531 33.535156 75.113281 32.039062 C 70.570312 33.601562 67.296875 37.929688 67.296875 43.003906 L 67.296875 44.191406 C 59.476562 45.421875 51.636719 46.976562 43.726562 48.824219 Z M 40.121094 38.5 " fill-opacity="1" fill-rule="nonzero"/><path fill="#ff0336" d="M 189.609375 38.5 L 186.027344 48.824219 C 175.152344 46.277344 164.367188 44.296875 153.628906 42.914062 C 153.761719 42.5625 153.847656 42.210938 153.9375 41.839844 C 154.046875 41.359375 154.085938 40.894531 154.132812 40.367188 C 154.175781 40.148438 154.199219 39.925781 154.199219 39.707031 L 154.199219 31.996094 C 165.929688 33.46875 177.726562 35.644531 189.609375 38.5 Z M 189.609375 38.5 " fill-opacity="1" fill-rule="nonzero"/><path fill="#ff0336" d="M 124.96875 61.667969 C 119.214844 63.554688 113.972656 66.875 109.710938 71.171875 C 107.664062 56.609375 97.136719 51.730469 91.105469 50.113281 C 89.089844 49.40625 87.53125 49.328125 87.027344 49.328125 C 86.914062 49.328125 86.855469 49.332031 86.855469 49.332031 L 91.703125 48.894531 C 95.160156 48.347656 97.464844 46.683594 99.003906 44.65625 C 99.289062 44.28125 99.542969 43.890625 99.78125 43.496094 C 100.070312 43.007812 100.320312 42.511719 100.542969 42.015625 C 100.546875 42 100.554688 41.992188 100.558594 41.976562 C 100.570312 41.953125 100.578125 41.925781 100.589844 41.898438 C 101.308594 40.230469 101.691406 38.542969 101.882812 37.160156 C 102.136719 35.332031 102.074219 34.039062 102.074219 34.039062 L 78.902344 34.039062 C 73.945312 34.039062 69.933594 38.054688 69.933594 43.007812 L 69.933594 56.289062 C 70.109375 60.335938 71.035156 69.101562 76.738281 78.222656 C 81.808594 86.332031 86.902344 90.640625 90.53125 92.898438 C 90.800781 93.070312 91.070312 93.230469 91.324219 93.375 C 91.597656 93.53125 91.863281 93.679688 92.117188 93.8125 C 92.171875 93.839844 92.230469 93.875 92.28125 93.902344 C 92.28125 93.902344 92.296875 93.894531 92.300781 93.894531 L 92.300781 95.660156 L 92.179688 95.597656 C 92.324219 100.554688 92.328125 105.839844 92.308594 108.898438 L 140.808594 108.898438 L 140.808594 88.808594 C 145.042969 85.851562 151.398438 79.792969 151.398438 70.03125 C 151.398438 70.019531 151.34375 66.820312 151.273438 62.585938 C 142.96875 59.25 133.484375 58.875 124.96875 61.667969 Z M 124.96875 61.667969 " fill-opacity="1" fill-rule="nonzero"/><path fill="#ff0336" d="M 92.296875 110.449219 C 92.296875 110.355469 92.296875 110.273438 92.300781 110.167969 C 92.300781 110.28125 92.296875 110.355469 92.296875 110.449219 C 92.277344 111.925781 92.289062 111.726562 92.296875 110.449219 Z M 92.296875 110.449219 " fill-opacity="1" fill-rule="nonzero"/><path fill="#ff0336" d="M 144.648438 14.980469 C 140.835938 14.980469 137.746094 18.070312 137.746094 21.882812 L 137.746094 39.71875 C 137.746094 43.53125 140.835938 46.621094 144.648438 46.621094 C 147.460938 46.621094 149.867188 44.9375 150.945312 42.527344 C 151.128906 42.121094 151.273438 41.691406 151.371094 41.25 C 151.445312 40.917969 151.476562 40.5625 151.503906 40.210938 C 151.519531 40.046875 151.554688 39.886719 151.554688 39.71875 L 151.554688 21.882812 C 151.554688 18.070312 148.460938 14.980469 144.648438 14.980469 Z M 144.648438 14.980469 " fill-opacity="1" fill-rule="nonzero"/><path fill="#ff0336" d="M 127.417969 52.152344 C 132.046875 52.152344 135.800781 48.402344 135.800781 43.769531 L 135.800781 16.605469 C 135.800781 11.976562 132.046875 8.226562 127.417969 8.226562 C 122.789062 8.226562 119.035156 11.976562 119.035156 16.605469 L 119.035156 43.777344 C 119.035156 48.402344 122.789062 52.152344 127.417969 52.152344 Z M 127.417969 52.152344 " fill-opacity="1" fill-rule="nonzero"/><g clip-path="url(#656e90792c)"><path fill="#ff0336" d="M 100.59375 25.847656 L 100.59375 32.492188 L 103.554688 32.492188 L 103.625 33.96875 C 103.671875 34.847656 103.640625 35.878906 103.503906 36.988281 C 103.199219 39.574219 102.332031 42.582031 100.558594 45.117188 L 100.558594 47.058594 C 100.558594 51.6875 104.308594 55.441406 108.9375 55.441406 C 113.570312 55.441406 117.320312 51.6875 117.320312 47.058594 L 117.320312 12.917969 C 117.320312 8.289062 113.570312 4.539062 108.941406 4.539062 C 104.3125 4.539062 100.5625 8.289062 100.5625 12.917969 L 100.5625 15.292969 C 100.574219 15.5 100.59375 15.710938 100.59375 15.921875 Z M 100.59375 25.847656 " fill-opacity="1" fill-rule="nonzero"/></g><path fill="#ff0336" d="M 88.617188 32.488281 L 99.039062 32.488281 L 99.039062 15.921875 C 99.039062 15.8125 99.015625 15.710938 99.007812 15.605469 C 98.839844 11.125 95.183594 7.539062 90.664062 7.539062 C 86.035156 7.539062 82.28125 11.289062 82.28125 15.921875 L 82.28125 32.488281 Z M 88.617188 32.488281 " fill-opacity="1" fill-rule="nonzero"/></svg>